<svg width="24" height="24" fill="none" xmlns="http://www.w3.org/2000/svg"><path d="M3 9h15" stroke="#E53BC9" stroke-width="1.5" stroke-linecap="round" stroke-linejoin="round"/><path clip-rule="evenodd" d="M13.586 18H5a2 2 0 0 1-2-2V6a2 2 0 0 1 2-2h11a2 2 0 0 1 2 2v7.586c0 .265-.105.52-.293.707l-3.414 3.414a1 1 0 0 1-.707.293Z" stroke="#E53BC9" stroke-width="1.5" stroke-linecap="round" stroke-linejoin="round"/><path d="M13 18v-4a1 1 0 0 1 1-1h4M14 3v2M7 3v2" stroke="#E53BC9" stroke-width="1.5" stroke-linecap="round" stroke-linejoin="round"/><path d="M21 9v10a2 2 0 0 1-2 2H8" stroke="#E53BC9" stroke-width="1.5" stroke-linecap="round" stroke-linejoin="round"/></svg>