<svg width="128" height="37" fill="none" xmlns="http://www.w3.org/2000/svg"><path d="M67.527 12.254h3.483v17.792h-3.483V12.254ZM87.757 23.822c-.185 1.023-.616 1.874-1.294 2.553-.886.885-2.076 1.327-3.57 1.327-1.609 0-2.896-.615-3.862-1.845-.965-1.23-1.447-2.867-1.447-4.913 0-1.931.482-3.471 1.447-4.62.966-1.15 2.253-1.725 3.863-1.725 1.493 0 2.688.426 3.585 1.275.71.675 1.146 1.542 1.308 2.605h3.509c-.16-1.161-.529-2.208-1.11-3.139-.724-1.16-1.719-2.057-2.982-2.69-1.265-.631-2.702-.948-4.31-.948-1.748 0-3.288.38-4.621 1.138-1.333.759-2.373 1.846-3.121 3.259-.747 1.414-1.12 3.052-1.12 4.913 0 1.978.379 3.685 1.137 5.12.759 1.438 1.805 2.541 3.139 3.312 1.332.769 2.862 1.155 4.586 1.155 1.608 0 3.045-.311 4.31-.931a7.234 7.234 0 0 0 3-2.69c.58-.923.944-1.976 1.095-3.156h-3.542ZM64.065 14.634v-2.38h-4.93V8.456h-1.23l-1.701 2.869a2.932 2.932 0 0 1-1.577 1.28l-2.01.683v1.347h3.035v10.827c0 1.31.195 2.31.586 3 .39.69 1.005 1.155 1.845 1.397.839.241 2.017.362 3.534.362.736 0 1.552-.035 2.448-.104V27.22a30.78 30.78 0 0 1-2.31.103c-.989 0-1.672-.15-2.052-.448-.38-.299-.569-.908-.569-1.827V14.634h4.93ZM106.612 26.082c-.851-1.448-1.276-3.115-1.276-5 0-1.862.425-3.5 1.276-4.913a8.878 8.878 0 0 1 3.448-3.293 9.72 9.72 0 0 1 4.69-1.173c1.678 0 3.241.39 4.689 1.173a8.865 8.865 0 0 1 3.448 3.293c.851 1.413 1.276 3.051 1.276 4.913 0 1.885-.425 3.552-1.276 5-.85 1.448-1.994 2.563-3.43 3.345-1.437.781-3.006 1.172-4.707 1.172s-3.27-.39-4.707-1.172c-1.437-.782-2.58-1.897-3.431-3.345Zm14.034-5c0-2.023-.535-3.609-1.604-4.758-1.068-1.15-2.499-1.724-4.292-1.724-1.77 0-3.19.574-4.259 1.724-1.069 1.15-1.603 2.735-1.603 4.758 0 2.069.534 3.69 1.603 4.862 1.069 1.172 2.489 1.759 4.259 1.759 1.793 0 3.224-.587 4.292-1.759 1.069-1.172 1.604-2.793 1.604-4.862ZM69.27 10.47a2.016 2.016 0 1 0 0-4.03 2.016 2.016 0 0 0 0 4.03ZM126.427 13.587c-.05-.044-.131-.069-.243-.072V13.5a.419.419 0 0 0 .281-.118.364.364 0 0 0 .107-.27.34.34 0 0 0-.133-.285.589.589 0 0 0-.368-.103h-.743v1.544h.287v-.578h.37c.067 0 .117.005.153.016a.14.14 0 0 1 .08.06.352.352 0 0 1 .041.129l.062.373h.291l-.084-.457c-.018-.104-.051-.179-.101-.224Zm-.424-.111h-.388v-.519h.388c.087 0 .156.023.208.069a.227.227 0 0 1 .079.18c0 .082-.027.147-.079.196a.293.293 0 0 1-.208.074Z" fill="#fff"/><path d="M125.971 11.697a1.8 1.8 0 0 0-1.799 1.799c0 .991.807 1.798 1.799 1.798a1.8 1.8 0 0 0 1.798-1.799 1.8 1.8 0 0 0-1.798-1.798Zm0 3.29a1.493 1.493 0 0 1-1.491-1.491c0-.822.669-1.49 1.491-1.49.821 0 1.49.668 1.49 1.49s-.669 1.49-1.49 1.49ZM103.827 14.634v-2.38h-4.931V8.456h-1.229l-1.701 2.869a2.931 2.931 0 0 1-1.577 1.28l-2.01.683v1.347h3.034v10.827c0 1.31.196 2.31.587 3 .39.69 1.005 1.155 1.844 1.397.84.241 2.017.362 3.535.362.735 0 1.551-.035 2.448-.104V27.22c-.897.069-1.667.103-2.311.103-.988 0-1.672-.15-2.051-.448-.38-.299-.57-.908-.57-1.827V14.634h4.932ZM33.966 0H3.034A3.034 3.034 0 0 0 0 3.034v30.932A3.034 3.034 0 0 0 3.034 37h30.932A3.034 3.034 0 0 0 37 33.966V3.034A3.034 3.034 0 0 0 33.966 0Z" fill="#fff"/><path d="M29.29 8.549v4.625h-7.708v1.541h-.001v15.417h-6.165V19.206c0-.407.162-.798.45-1.086l4.015-4.016a.545.545 0 0 0-.386-.93H7.707V8.55h21.584Z" fill="#000"/></svg>