<svg width="176" height="43" fill="none" xmlns="http://www.w3.org/2000/svg"><path d="M58.638 23.213c-1-1.711-1.501-3.681-1.501-5.909 0-2.228.5-4.136 1.501-5.808a10.464 10.464 0 0 1 4.057-3.893 11.389 11.389 0 0 1 5.517-1.385c1.973 0 3.813.461 5.516 1.385a10.464 10.464 0 0 1 4.057 3.893c1.001 1.67 1.502 3.607 1.502 5.808 0 2.201-.5 4.198-1.502 5.91-1 1.71-2.344 3.028-4.035 3.952-1.69.924-3.536 1.385-5.536 1.385-2 0-3.846-.46-5.536-1.385-1.69-.924-3.036-2.241-4.037-3.953h-.003Zm16.509-5.909c0-2.391-.63-4.266-1.886-5.625-1.258-1.358-2.942-2.038-5.05-2.038-2.107 0-3.751.68-5.009 2.038-1.258 1.36-1.886 3.234-1.886 5.625s.628 4.36 1.886 5.746c1.258 1.385 2.929 2.078 5.01 2.078 2.08 0 3.793-.693 5.049-2.078 1.258-1.385 1.886-3.302 1.886-5.746ZM101.755 6.873V27.9h-3.411l-.525-4.32h-.406c-1.153 3.385-4.667 4.973-7.545 4.973-1.46 0-2.766-.32-3.914-.957-1.15-.638-2.048-1.549-2.698-2.73-.65-1.183-.975-2.562-.975-4.137V6.873h4.097v12.55c0 1.739.474 3.104 1.42 4.097.946.992 2.243 1.486 3.894 1.486 1.785 0 3.225-.66 4.32-1.976 1.096-1.317 1.642-3.077 1.642-5.278V6.87h4.097l.004.002ZM174.823 6.22c-2.878 0-6.393 1.588-7.543 4.974h-.406l-.525-4.32h-3.411V27.9h4.098V17.132c0-2.201.547-3.961 1.642-5.278 1.093-1.32 2.536-1.974 4.32-1.974h3.001V6.295a8.898 8.898 0 0 0-1.176-.072V6.22ZM121.559 2.382h4.056V27.9h-4.056V2.383ZM142.703 18.12c.026 2.228.656 3.966 1.885 5.217 1.23 1.248 2.819 1.875 4.766 1.875 1.541 0 2.832-.435 3.875-1.304 1.04-.869 1.71-1.983 2.008-3.341h3.895c-.189 1.603-.744 3.008-1.664 4.217a9.134 9.134 0 0 1-3.508 2.792c-1.421.653-2.955.977-4.604.977-3.273 0-5.868-.963-7.788-2.893-1.921-1.928-2.88-4.714-2.88-8.354 0-2.283.432-4.259 1.297-5.929s2.096-2.947 3.69-3.831c1.596-.882 3.436-1.323 5.517-1.323 2.081 0 3.771.454 5.312 1.365a9.407 9.407 0 0 1 3.57 3.708c.838 1.561 1.258 3.306 1.258 5.236v1.59H142.7l.003-.002Zm0-2.567h12.532c-.136-1.849-.751-3.307-1.846-4.38-1.095-1.073-2.549-1.611-4.36-1.611-1.811 0-3.251.523-4.401 1.568-1.15 1.046-1.791 2.52-1.928 4.423h.003ZM118.063 9.683V6.871h-5.8V2.38h-1.444l-2.002 3.39a3.46 3.46 0 0 1-1.855 1.513l-2.364.808v1.592h3.569V22.48c0 1.548.231 2.73.689 3.544.459.814 1.184 1.366 2.169 1.65.988.285 2.373.428 4.158.428.865 0 1.824-.04 2.88-.121v-3.423c-1.053.081-1.96.12-2.717.12-1.164 0-1.967-.176-2.413-.529-.446-.352-.67-1.074-.67-2.159V9.681h5.8v.002ZM130.598 6.873h4.096v21.028h-4.096V6.873Zm4.421-4.49A2.378 2.378 0 0 0 132.648 0a2.378 2.378 0 0 0-2.371 2.383 2.378 2.378 0 0 0 2.371 2.382 2.378 2.378 0 0 0 2.371-2.382ZM60.203 39.088v-3.81h2.389v.534h-1.803v1.094h1.651v.534h-1.65v1.116h1.83v.534h-2.415l-.002-.002ZM68.836 39.088l1.163-1.921-1.148-1.889h.672l.856 1.47h.088l.86-1.47H72l-1.148 1.889 1.164 1.92h-.677l-.871-1.501h-.088l-.871 1.502h-.672ZM78.39 39.088v-3.81h1.507c.23 0 .436.047.619.14.182.092.325.222.428.392.103.168.153.37.153.607v.07c0 .236-.052.44-.16.609-.105.17-.25.3-.43.393-.18.092-.384.136-.613.136h-.92v1.463h-.583Zm.587-1.996h.86c.207 0 .371-.056.492-.164a.564.564 0 0 0 .184-.445v-.055a.575.575 0 0 0-.184-.453.72.72 0 0 0-.492-.163h-.86v1.28ZM87.508 39.088v-3.81h2.388v.534h-1.802v1.094h1.65v.534h-1.65v1.116h1.83v.534H87.51l-.002-.002ZM96.385 39.088v-3.81h1.592c.234 0 .44.042.619.124a.963.963 0 0 1 .417.35c.099.153.149.334.149.545v.06c0 .238-.057.43-.171.574a.93.93 0 0 1-.415.302v.086a.467.467 0 0 1 .33.139.513.513 0 0 1 .124.366v1.262h-.59v-1.18a.34.34 0 0 0-.077-.234c-.05-.058-.132-.089-.244-.089h-1.152v1.503h-.584l.002.002Zm.584-2.034h.942c.208 0 .37-.053.487-.161a.565.565 0 0 0 .174-.439v-.044a.575.575 0 0 0-.172-.439c-.114-.106-.276-.161-.49-.161h-.941v1.244ZM105.66 39.088v-3.81h.586v3.81h-.586ZM112.879 39.088v-3.81h2.388v.534h-1.802v1.094h1.651v.534h-1.651v1.116h1.831v.534h-2.415l-.002-.002ZM121.75 39.088v-3.81h1.126l1.03 3.417h.088v-3.417h.579v3.81h-1.126l-1.03-3.421h-.087v3.42h-.58ZM132.623 39.165c-.463 0-.827-.132-1.1-.395-.27-.262-.406-.642-.406-1.14v-.894c0-.496.136-.875.406-1.14.27-.265.637-.395 1.1-.395.463 0 .806.128 1.054.382.246.254.371.6.371 1.039v.033h-.58v-.049c0-.258-.07-.467-.208-.63-.139-.164-.351-.245-.637-.245-.285 0-.514.088-.676.264-.162.177-.244.42-.244.733v.915c0 .309.082.551.244.728.162.176.389.267.676.267.288 0 .498-.082.637-.247a.949.949 0 0 0 .208-.629v-.093h.58v.078c0 .439-.123.785-.371 1.039-.246.253-.597.381-1.054.381v-.002ZM140.531 39.088v-3.81h2.389v.534h-1.803v1.094h1.651v.534h-1.651v1.116h1.831v.534h-2.415l-.002-.002ZM21.112 0a7.65 7.65 0 0 0-5.425 2.259L8.967 9.01l-6.72 6.751A7.714 7.714 0 0 0 0 21.212v11.806h8.97v9.008h11.746a7.667 7.667 0 0 0 5.43-2.256l13.44-13.506a7.74 7.74 0 0 0 2.247-5.455V0H21.112Zm10.772 29.91a2.123 2.123 0 0 1-2.119 2.129H9.942V12.127c0-1.178.95-2.133 2.123-2.133h18.24c.872 0 1.579.71 1.579 1.586v18.332-.002Z" fill="#fff"/></svg>